<svg xmlns="http://www.w3.org/2000/svg" width="21.71" height="23.684" viewBox="0 0 21.71 23.684">
  <g id="Icon_ionic-ios-stats" data-name="Icon ionic-ios-stats" transform="translate(-5.625 -4.5)">
    <path id="Path_1765" data-name="Path 1765" d="M12.868,28.184h2.961a.5.5,0,0,0,.493-.493V4.993a.5.5,0,0,0-.493-.493H12.868a.5.5,0,0,0-.493.493v22.7A.5.5,0,0,0,12.868,28.184Z" transform="translate(-0.829)" fill="#84ceff"/>
    <path id="Path_1766" data-name="Path 1766" d="M6.118,30.118H9.079a.5.5,0,0,0,.493-.493V20.743a.5.5,0,0,0-.493-.493H6.118a.5.5,0,0,0-.493.493v8.882A.5.5,0,0,0,6.118,30.118Z" transform="translate(0 -1.934)" fill="#84ceff"/>
    <path id="Path_1767" data-name="Path 1767" d="M19.625,29.566h2.948a.5.5,0,0,0,.5-.5V16.25a.5.5,0,0,0-.5-.5H19.625a.5.5,0,0,0-.5.5V29.066A.5.5,0,0,0,19.625,29.566Z" transform="translate(-1.658 -1.382)" fill="#84ceff"/>
    <path id="Path_1768" data-name="Path 1768" d="M25.875,9.5V28.237a.5.5,0,0,0,.5.5h2.948a.5.5,0,0,0,.5-.5V9.5a.5.5,0,0,0-.5-.5H26.375A.5.5,0,0,0,25.875,9.5Z" transform="translate(-2.487 -0.553)" fill="#84ceff"/>
  </g>
</svg>
