<svg xmlns="http://www.w3.org/2000/svg" width="17.142" height="17.174" viewBox="0 0 17.142 17.174">
  <g id="Icon_feather-phone-outgoing" data-name="Icon feather-phone-outgoing" transform="translate(-2.417 -0.305)">
    <path id="Path_1226" data-name="Path 1226" d="M18.808,14.733v2.359a1.573,1.573,0,0,1-1.714,1.573,15.563,15.563,0,0,1-6.787-2.414,15.335,15.335,0,0,1-4.719-4.719A15.563,15.563,0,0,1,3.174,4.714,1.573,1.573,0,0,1,4.739,3H7.1A1.573,1.573,0,0,1,8.671,4.353a10.1,10.1,0,0,0,.55,2.21,1.573,1.573,0,0,1-.354,1.659l-1,1a12.583,12.583,0,0,0,4.719,4.719l1-1a1.573,1.573,0,0,1,1.659-.354,10.1,10.1,0,0,0,2.21.55A1.573,1.573,0,0,1,18.808,14.733Z" transform="translate(0 -1.945)" fill="none" stroke="#84ceff" stroke-linecap="round" stroke-linejoin="round" stroke-width="1.5"/>
  </g>
</svg>
