<svg xmlns="http://www.w3.org/2000/svg" width="18.818" height="18.03" viewBox="0 0 18.818 18.03">
  <g id="Icon_feather-shopping-cart" data-name="Icon feather-shopping-cart" transform="translate(-0.75 -0.75)">
    <path id="Path_1939" data-name="Path 1939" d="M13.574,30.787A.787.787,0,1,1,12.787,30,.787.787,0,0,1,13.574,30.787Z" transform="translate(-4.99 -13.544)" fill="none" stroke="#84ceff" stroke-linecap="round" stroke-linejoin="round" stroke-width="1.5"/>
    <path id="Path_1940" data-name="Path 1940" d="M30.074,30.787A.787.787,0,1,1,29.287,30,.787.787,0,0,1,30.074,30.787Z" transform="translate(-12.831 -13.544)" fill="none" stroke="#84ceff" stroke-linecap="round" stroke-linejoin="round" stroke-width="1.5"/>
    <path id="Path_1941" data-name="Path 1941" d="M1.5,1.5H4.649l2.11,10.54a1.574,1.574,0,0,0,1.574,1.267h7.651a1.574,1.574,0,0,0,1.574-1.267l1.259-6.6H5.436" fill="none" stroke="#84ceff" stroke-linecap="round" stroke-linejoin="round" stroke-width="1.5"/>
  </g>
</svg>
