<svg xmlns="http://www.w3.org/2000/svg" width="25.416" height="25.416" viewBox="0 0 25.416 25.416">
  <path id="Icon_material-block" data-name="Icon material-block" d="M15.708,3A12.708,12.708,0,1,0,28.416,15.708,12.713,12.713,0,0,0,15.708,3ZM5.542,15.708A10.164,10.164,0,0,1,15.708,5.542a10.042,10.042,0,0,1,6.227,2.148L7.689,21.935A10.042,10.042,0,0,1,5.542,15.708ZM15.708,25.874a10.042,10.042,0,0,1-6.227-2.148L23.727,9.481a10.042,10.042,0,0,1,2.148,6.227A10.164,10.164,0,0,1,15.708,25.874Z" transform="translate(-3 -3)" fill="red"/>
</svg>
