<svg xmlns="http://www.w3.org/2000/svg" width="38.068" height="38.068" viewBox="0 0 38.068 38.068">
  <g id="Icon_feather-image" data-name="Icon feather-image" transform="translate(1 1)">
    <path id="Path_1989" data-name="Path 1989" d="M8.462,4.5H36.192a3.962,3.962,0,0,1,3.962,3.962V36.192a3.962,3.962,0,0,1-3.962,3.962H8.462A3.962,3.962,0,0,1,4.5,36.192V8.462A3.962,3.962,0,0,1,8.462,4.5Z" transform="translate(-4.5 -4.5)" fill="none" stroke="#84ceff" stroke-linecap="round" stroke-linejoin="round" stroke-width="2"/>
    <path id="Path_1990" data-name="Path 1990" d="M16.442,13.471A2.971,2.971,0,1,1,13.471,10.5,2.971,2.971,0,0,1,16.442,13.471Z" transform="translate(-2.577 -2.577)" fill="none" stroke="#84ceff" stroke-linecap="round" stroke-linejoin="round" stroke-width="2"/>
    <path id="Path_1991" data-name="Path 1991" d="M39.192,24.9l-9.9-9.9L7.5,36.788" transform="translate(-3.538 -1.135)" fill="none" stroke="#84ceff" stroke-linecap="round" stroke-linejoin="round" stroke-width="2"/>
  </g>
</svg>
