<svg xmlns="http://www.w3.org/2000/svg" width="30.275" height="16.521" viewBox="0 0 30.275 16.521">
  <g id="Group_2002" data-name="Group 2002" transform="matrix(1, 0.017, -0.017, 1, -414.53, -302.786)">
    <path id="Rectangle_679" data-name="Rectangle 679" d="M3,1A2,2,0,0,0,1,3V13a2,2,0,0,0,2,2H27a2,2,0,0,0,2-2V3a2,2,0,0,0-2-2H3M3,0H27a3,3,0,0,1,3,3V13a3,3,0,0,1-3,3H3a3,3,0,0,1-3-3V3A3,3,0,0,1,3,0Z" transform="translate(420.03 295.5)" fill="#000000"/>
    <path id="Path_1812" data-name="Path 1812" d="M.6,3.632a1.311,1.311,0,0,1,.372-1,1.345,1.345,0,0,1,.964-.352,1.331,1.331,0,0,1,.96.352,1.319,1.319,0,0,1,.368,1,1.319,1.319,0,0,1-.368,1,1.331,1.331,0,0,1-.96.352,1.345,1.345,0,0,1-.964-.352A1.311,1.311,0,0,1,.6,3.632ZM6.028,2.368,2.948,8H1.628l3.08-5.632Zm-4.1.712q-.384,0-.384.552t.384.544a.342.342,0,0,0,.288-.136.667.667,0,0,0,.1-.408Q2.316,3.08,1.924,3.08ZM4.4,6.736A1.243,1.243,0,0,1,5.732,5.384,1.243,1.243,0,0,1,7.06,6.736,1.243,1.243,0,0,1,5.732,8.088,1.243,1.243,0,0,1,4.4,6.736Zm1.32-.552a.332.332,0,0,0-.284.136.7.7,0,0,0-.1.416q0,.544.384.544a.342.342,0,0,0,.288-.136.667.667,0,0,0,.1-.408.685.685,0,0,0-.1-.412A.339.339,0,0,0,5.724,6.184Zm6.12-3.8v1.1H10.356V8H8.988V3.48H7.5v-1.1Zm4.184,4.624h-2.1L13.6,8H12.164L14.2,2.384H15.78L17.812,8H16.364Zm-.352-1.056L14.98,3.9l-.688,2.056ZM21.868,8,20.724,6.28,19.716,8H18.164l1.8-2.856-1.84-2.76h1.592l1.128,1.7.992-1.7h1.552L21.6,5.216,23.46,8Z" transform="translate(423.03 298)" fill="#000000"/>
  </g>
</svg>
