<svg xmlns="http://www.w3.org/2000/svg" width="19.226" height="23.537" viewBox="0 0 19.226 23.537">
  <g id="Icon_ionic-ios-chatbubbles" data-name="Icon ionic-ios-chatbubbles" transform="translate(18.476 0.75) rotate(90)">
    <path id="Path_1277" data-name="Path 1277" d="M2.092,14.146a1.089,1.089,0,0,0-.209-.633,1.776,1.776,0,0,0-.133-.161A7.383,7.383,0,0,1,0,8.666C-.019,3.881,4.912,0,11.009,0,16.327,0,20.763,2.963,21.8,6.9a6.9,6.9,0,0,1,.235,1.775c0,4.79-4.741,8.775-10.838,8.775a15.716,15.716,0,0,1-2.992-.4c-.716-.161-1.426-.374-1.61-.431a2.009,2.009,0,0,0-.589-.088,1.968,1.968,0,0,0-.64.1L1.775,17.674a1.01,1.01,0,0,1-.247.052.466.466,0,0,1-.507-.415.561.561,0,0,1,.032-.14Z" transform="translate(0 0)" fill="none" stroke="#fff" stroke-width="1.5"/>
  </g>
</svg>
