<svg xmlns="http://www.w3.org/2000/svg" width="19.654" height="19.655" viewBox="0 0 19.654 19.655">
  <defs>
    <style>
      .cls-1 {
        fill: none;
        stroke: #84ceff;
        stroke-linecap: round;
        stroke-linejoin: round;
        stroke-width: 1.5px;
      }
    </style>
  </defs>
  <g id="Icon_feather-copy" data-name="Icon feather-copy" transform="translate(-2.25 -2.25)">
    <path id="Path_1747" data-name="Path 1747" class="cls-1" d="M15.316,13.5h8.17A1.816,1.816,0,0,1,25.3,15.316v8.17A1.816,1.816,0,0,1,23.485,25.3h-8.17A1.816,1.816,0,0,1,13.5,23.485v-8.17A1.816,1.816,0,0,1,15.316,13.5Z" transform="translate(-4.146 -4.146)"/>
    <path id="Path_1748" data-name="Path 1748" class="cls-1" d="M5.723,14.8H4.816A1.816,1.816,0,0,1,3,12.985V4.816A1.816,1.816,0,0,1,4.816,3h8.17A1.816,1.816,0,0,1,14.8,4.816v.908"/>
  </g>
</svg>
