<svg xmlns="http://www.w3.org/2000/svg" width="17.929" height="35.875" viewBox="0 0 17.929 35.875">
  <path id="Icon_ionic-ios-phone-portrait" data-name="Icon ionic-ios-phone-portrait" d="M25.476,2.25h-12.7a2.635,2.635,0,0,0-2.651,2.635V35.394a2.713,2.713,0,0,0,2.651,2.731H25.468a2.659,2.659,0,0,0,2.586-2.731V4.885A2.569,2.569,0,0,0,25.476,2.25ZM17.892,4.092h2.4a.32.32,0,0,1,0,.641h-2.4a.32.32,0,1,1,0-.641Zm1.241,32.832a1.393,1.393,0,1,1,1.393-1.393A1.394,1.394,0,0,1,19.134,36.923ZM26.621,33H11.566a.161.161,0,0,1-.16-.16V6.494a.161.161,0,0,1,.16-.16H26.621a.161.161,0,0,1,.16.16V32.839A.161.161,0,0,1,26.621,33Z" transform="translate(-10.125 -2.25)" fill="#84ceff"/>
</svg>
