<svg xmlns="http://www.w3.org/2000/svg" width="19.518" height="19.518" viewBox="0 0 19.518 19.518">
  <g id="Group_2433" data-name="Group 2433" transform="translate(-543.482 -215.242)">
    <path id="Icon_metro-magic-wand" data-name="Icon metro-magic-wand" d="M7.45,5.588,5.01,3.148H3.791v1.22l2.44,2.44Zm1.22-3.66H9.89v2.44H8.67Zm4.88,6.1h2.44v1.22H13.55Zm1.22-3.66V3.148H13.55l-2.44,2.44,1.22,1.22Zm-12.2,3.66H5.01v1.22H2.571Zm6.1,4.88H9.89v2.44H8.67Zm-4.88,0v1.22H5.01l2.44-2.44-1.22-1.22Zm18.031,5.833L9.7,6.615a.918.918,0,0,0-1.294,0L7.257,7.761a.918.918,0,0,0,0,1.294L19.382,21.179a.918.918,0,0,0,1.294,0l1.146-1.146A.918.918,0,0,0,21.822,18.739ZM11.72,12.3,8.06,8.637l1.22-1.22,3.66,3.66Z" transform="translate(540.911 213.313)" fill="#f1f2f2"/>
  </g>
</svg>
