<svg xmlns="http://www.w3.org/2000/svg" width="17.482" height="12.031" viewBox="0 0 17.482 12.031">
  <defs>
    <style>
      .cls-1 {
        fill: none;
        stroke: #84ceff;
      }
    </style>
  </defs>
  <path id="Icon_material-people" data-name="Icon material-people" class="cls-1" d="M12.738,12.228a2.3,2.3,0,0,0,2.24-2.364,2.247,2.247,0,1,0-4.488,0A2.3,2.3,0,0,0,12.738,12.228Zm-5.993,0a2.3,2.3,0,0,0,2.24-2.364A2.3,2.3,0,0,0,6.744,7.5,2.3,2.3,0,0,0,4.5,9.864,2.3,2.3,0,0,0,6.744,12.228Zm0,1.576C5,13.8,1.5,14.726,1.5,16.561v1.97H11.989v-1.97C11.989,14.726,8.49,13.8,6.744,13.8Zm5.993,0c-.217,0-.464.016-.727.039a3.364,3.364,0,0,1,1.476,2.718v1.97h4.5v-1.97C17.982,14.726,14.483,13.8,12.738,13.8Z" transform="translate(-1 -7)"/>
</svg>
