<svg xmlns="http://www.w3.org/2000/svg" width="40" height="40" viewBox="0 0 40 40">
  <g id="Group_2325" data-name="Group 2325" transform="translate(-588.578 -678.701)">
    <g id="Rectangle_609" data-name="Rectangle 609" transform="translate(588.578 678.701)" fill="#fff" stroke="#84ceff" stroke-width="1.5">
      <rect width="40" height="40" rx="20" stroke="none"/>
      <rect x="0.75" y="0.75" width="38.5" height="38.5" rx="19.25" fill="none"/>
    </g>
    <g id="Icon_ionic-ios-chatbubbles" data-name="Icon ionic-ios-chatbubbles" transform="translate(598.588 691.346) rotate(-3)">
      <path id="Path_1277" data-name="Path 1277" d="M1.822,12.325a.949.949,0,0,0-.182-.552,1.547,1.547,0,0,0-.116-.14A6.433,6.433,0,0,1,0,7.55C-.017,3.382,4.28,0,9.592,0c4.633,0,8.5,2.582,9.4,6.009a6.008,6.008,0,0,1,.2,1.546c0,4.173-4.131,7.645-9.443,7.645a13.693,13.693,0,0,1-2.606-.348c-.624-.14-1.242-.326-1.4-.375a1.75,1.75,0,0,0-.514-.077,1.715,1.715,0,0,0-.558.09L1.546,15.4a.88.88,0,0,1-.215.045.406.406,0,0,1-.442-.362.489.489,0,0,1,.028-.122Z" transform="translate(0 0)" fill="none" stroke="#84ceff" stroke-width="1.5"/>
    </g>
  </g>
</svg>
