<svg xmlns="http://www.w3.org/2000/svg" width="14.34" height="28.693" viewBox="0 0 14.34 28.693">
  <g id="Group_2200" data-name="Group 2200" transform="translate(-933.637 -709.926)">
    <path id="Icon_ionic-ios-phone-portrait" data-name="Icon ionic-ios-phone-portrait" d="M22.4,2.25H12.245a2.107,2.107,0,0,0-2.12,2.107v24.4a2.17,2.17,0,0,0,2.12,2.184H22.4a2.127,2.127,0,0,0,2.069-2.184V4.357A2.055,2.055,0,0,0,22.4,2.25ZM16.338,3.723h1.921a.256.256,0,1,1,0,.512H16.338a.256.256,0,0,1,0-.512Zm.993,26.259a1.114,1.114,0,1,1,1.114-1.114A1.115,1.115,0,0,1,17.33,29.982Zm5.988-3.138H11.278a.128.128,0,0,1-.128-.128V5.644a.128.128,0,0,1,.128-.128H23.319a.128.128,0,0,1,.128.128V26.716A.128.128,0,0,1,23.319,26.844Z" transform="translate(923.512 707.676)" fill="#84ceff"/>
    <path id="Path_1993" data-name="Path 1993" d="M5.964,11.4H2.628L2.076,13H.312L3.324,4.612H5.28L8.292,13H6.516ZM5.508,10.06,4.3,6.556l-1.212,3.5Z" transform="translate(936.324 714.041)" fill="#84ceff"/>
  </g>
</svg>
