<svg xmlns="http://www.w3.org/2000/svg" xmlns:xlink="http://www.w3.org/1999/xlink" width="23.546" height="21.157" viewBox="0 0 23.546 21.157">
  <defs>
    <clipPath id="clip-path">
      <rect id="Rectangle_33" data-name="Rectangle 33" width="23.546" height="21.157" transform="translate(0 0)" fill="#84ceff"/>
    </clipPath>
  </defs>
  <g id="Group_13" data-name="Group 13" transform="translate(0 0)">
    <g id="Group_12" data-name="Group 12" transform="translate(0 0)" clip-path="url(#clip-path)">
      <path id="Path_1700" data-name="Path 1700" d="M73.321,66.633h0a4.148,4.148,0,1,1,4.148-4.148,4.148,4.148,0,0,1-4.148,4.148" transform="translate(-53.923 -45.476)" fill="#84ceff"/>
      <path id="Path_1701" data-name="Path 1701" d="M4.148,66.633h0A4.148,4.148,0,1,1,8.3,62.485a4.148,4.148,0,0,1-4.148,4.148" transform="translate(0 -45.476)" fill="#84ceff"/>
      <path id="Path_1702" data-name="Path 1702" d="M34.523,4.148h0A4.148,4.148,0,1,1,38.671,8.3a4.148,4.148,0,0,1-4.148-4.148" transform="translate(-26.912 0)" fill="#84ceff"/>
      <path id="Path_1703" data-name="Path 1703" d="M22.529,33.241a8.713,8.713,0,1,1,8.713-8.713,8.723,8.723,0,0,1-8.713,8.713m0-16.1a7.391,7.391,0,1,0,7.39,7.391,7.4,7.4,0,0,0-7.39-7.391" transform="translate(-10.77 -12.328)" fill="#84ceff"/>
    </g>
  </g>
</svg>
