<svg xmlns="http://www.w3.org/2000/svg" width="17.625" height="20" viewBox="0 0 17.625 20">
  <path id="Icon_awesome-birthday-cake" data-name="Icon awesome-birthday-cake" d="M16.625,14.25c-1.04,0-1.16-1.187-2.765-1.187s-1.738,1.187-2.774,1.187-1.167-1.187-2.774-1.187c-1.59,0-1.752,1.187-2.765,1.187-1.045,0-1.158-1.187-2.774-1.187S1.043,14.25,0,14.25V11.281A1.782,1.782,0,0,1,1.781,9.5h.594V4.156H4.75V9.5H7.125V4.156H9.5V9.5h2.375V4.156H14.25V9.5h.594a1.782,1.782,0,0,1,1.781,1.781Zm0,4.75H0V15.437c1.609,0,1.735-1.187,2.774-1.187s1.16,1.187,2.774,1.187c1.59,0,1.752-1.187,2.765-1.187,1.045,0,1.158,1.187,2.774,1.187s1.735-1.187,2.774-1.187c1.02,0,1.16,1.187,2.765,1.187ZM3.562,3.562A1.184,1.184,0,0,1,2.375,2.375c0-1.15,1.187-.854,1.187-2.375C4.008,0,4.75,1.095,4.75,2.078S4.221,3.562,3.562,3.562Zm4.75,0A1.184,1.184,0,0,1,7.125,2.375c0-1.15,1.187-.854,1.187-2.375C8.758,0,9.5,1.095,9.5,2.078S8.971,3.562,8.312,3.562Zm4.75,0a1.184,1.184,0,0,1-1.187-1.187c0-1.15,1.187-.854,1.187-2.375.445,0,1.187,1.095,1.187,2.078S13.721,3.562,13.062,3.562Z" transform="translate(0.5 0.5)" fill="none" stroke="#84ceff" stroke-width="1"/>
</svg>
