<svg xmlns="http://www.w3.org/2000/svg" width="18.454" height="18.456" viewBox="0 0 18.454 18.456">
  <path id="Icon_ionic-ios-female" data-name="Icon ionic-ios-female" d="M3.971,21.588a.582.582,0,0,0,.42-.175l1.961-1.961,1.62,1.62a.59.59,0,0,0,.42.175.582.582,0,0,0,.42-.175.594.594,0,0,0,0-.84l-1.62-1.62,2.189-2.189a7.4,7.4,0,1,0-.84-.84L6.352,17.771l-1.62-1.62a.59.59,0,0,0-.42-.175.582.582,0,0,0-.42.175.594.594,0,0,0,0,.84l1.62,1.62L3.551,20.572a.6.6,0,0,0,.42,1.016Zm5.818-15.2A6.209,6.209,0,1,1,7.972,10.78,6.179,6.179,0,0,1,9.789,6.389Z" transform="translate(-3.252 -3.257)" fill="#84ceff" stroke="#84ceff" stroke-width="0.25"/>
</svg>
