<svg xmlns="http://www.w3.org/2000/svg" width="12.017" height="15.453" viewBox="0 0 12.017 15.453">
  <g id="Group_2210" data-name="Group 2210" transform="translate(-961.7 -815.764)">
    <path id="Icon_awesome-baby" data-name="Icon awesome-baby" d="M5.422,4.517A2.258,2.258,0,1,0,3.163,2.258,2.258,2.258,0,0,0,5.422,4.517ZM3.914,11.54l.723-.9L2.9,9.191l-1.3,1.62A1.131,1.131,0,0,0,1.582,12.2L2.937,14a1.129,1.129,0,1,0,1.807-1.355ZM7.942,9.191,6.206,10.637l.723.9L6.1,12.647A1.129,1.129,0,1,0,7.906,14L9.261,12.2a1.131,1.131,0,0,0-.023-1.383l-1.3-1.62Zm2.693-5.1a1.131,1.131,0,0,0-1.572-.277l-1.146.8a4.366,4.366,0,0,1-4.991,0l-1.146-.8a1.129,1.129,0,1,0-1.3,1.846l1.146.8a6.7,6.7,0,0,0,1.536.788V8.13H7.68V7.261a6.7,6.7,0,0,0,1.536-.788l1.146-.8A1.131,1.131,0,0,0,10.636,4.093Z" transform="translate(962.287 816.264)" fill="none" stroke="#84ceff" stroke-width="1"/>
  </g>
</svg>
